<?xml version="1.0" encoding="UTF-8"?>
<svg width="512px" height="512px" viewBox="0 0 150 150" version="1.1" xmlns="http://www.w3.org/2000/svg" preserveAspectRatio="xMidYMid">
    <title>bunny.net</title>
    <defs>
        <linearGradient x1="29.4352883%" y1="45.3176687%" x2="80.6309178%" y2="58.7602308%" id="bunnyLinearGradient-1">
            <stop stop-color="#FEBE2D" offset="0%"></stop>
            <stop stop-color="#F85E23" offset="100%"></stop>
        </linearGradient>
        <linearGradient x1="-33.9398264%" y1="50.04095%" x2="153.690572%" y2="50.04095%" id="bunnyLinearGradient-2">
            <stop stop-color="#FBAA19" offset="0%"></stop>
            <stop stop-color="#EF3E23" offset="100%"></stop>
        </linearGradient>
        <linearGradient x1="32.8908646%" y1="96.6666487%" x2="67.1130842%" y2="3.11111053%" id="bunnyLinearGradient-3">
            <stop stop-color="#F78D1E" offset="0%"></stop>
            <stop stop-color="#F37121" offset="100%"></stop>
        </linearGradient>
        <linearGradient x1="14.4028408%" y1="75.177305%" x2="63.2274953%" y2="12.4480313%" id="bunnyLinearGradient-4">
            <stop stop-color="#FEBE2D" offset="0%"></stop>
            <stop stop-color="#F04E23" offset="100%"></stop>
        </linearGradient>
        <linearGradient x1="69.8803244%" y1="3.21352923%" x2="33.1012862%" y2="81.5809617%" id="bunnyLinearGradient-5">
            <stop stop-color="#EA4425" offset="0%"></stop>
            <stop stop-color="#FDBB27" offset="100%"></stop>
        </linearGradient>
        <linearGradient x1="-40.1271778%" y1="49.9893198%" x2="144.708119%" y2="49.9893198%" id="bunnyLinearGradient-6">
            <stop stop-color="#F47920" offset="0%"></stop>
            <stop stop-color="#E93825" offset="100%"></stop>
        </linearGradient>
        <linearGradient x1="-143.227273%" y1="49.9166667%" x2="243.363636%" y2="49.9166667%" id="bunnyLinearGradient-7">
            <stop stop-color="#FDCA0B" offset="0%"></stop>
            <stop stop-color="#F5841F" offset="100%"></stop>
        </linearGradient>
        <linearGradient x1="39.6769732%" y1="-25.0126839%" x2="63.8868118%" y2="131.608321%" id="bunnyLinearGradient-8">
            <stop stop-color="#E73C25" offset="0%"></stop>
            <stop stop-color="#FAA21B" offset="100%"></stop>
        </linearGradient>
        <linearGradient x1="-562.993864%" y1="49.9979816%" x2="562.904684%" y2="49.9979816%" id="bunnyLinearGradient-9">
            <stop stop-color="#FDBA12" offset="0%"></stop>
            <stop stop-color="#F7921E" offset="100%"></stop>
        </linearGradient>
        <linearGradient x1="1.98261285%" y1="41.5011038%" x2="106.167127%" y2="60.0441501%" id="bunnyLinearGradient-10">
            <stop stop-color="#FEBE2D" offset="0%"></stop>
            <stop stop-color="#F04E23" offset="100%"></stop>
        </linearGradient>
    </defs>
    <g>
        <g>
            <path d="M72.5506073,23.6653171 L106.649393,42.182996 L75.1417004,0 C70.0490544,6.8343647 69.0574627,15.8909024 72.5506073,23.6653171 L72.5506073,23.6653171 Z" fill="url(#bunnyLinearGradient-2)"></path>
            <path d="M57.1422402,92.3465587 C61.426272,92.346728 64.9025982,95.8129972 64.9152132,100.097011 C64.9277597,104.381024 61.4718519,107.867651 57.187895,107.89312 C52.9039381,107.918312 49.4070411,104.472796 49.3689609,100.188934 C49.3505286,98.1153863 50.1613524,96.1204251 51.6211277,94.647674 C53.0809029,93.174923 55.0686107,92.3465587 57.1422402,92.3465587 L57.1422402,92.3465587 Z" fill="url(#bunnyLinearGradient-3)"></path>
            <path d="M33.4078273,6.18407557 L128.898246,58.0059379 C130.491459,58.7809308 131.50263,60.3972546 131.50263,62.1689609 C131.50263,63.9406671 130.491459,65.556991 128.898246,66.3319838 C121.676186,70.6778195 113.766829,73.7621183 105.509312,75.4526316 L85.6442645,116.219163 C85.6442645,116.219163 79.3565452,130.521997 62.0480432,125.02888 C69.3031039,117.773819 78.0782726,111.209717 78.0782726,100.050742 C78.0782724,88.4690107 68.6894239,79.0801623 57.1076923,79.0801623 C45.5259607,79.0801623 36.1371122,88.4690107 36.137112,100.050742 C36.137112,114.62996 50.5090418,120.779487 58.4896086,130.902024 C62.083956,135.990019 61.6076644,142.903463 57.3495277,147.450472 C47.434278,137.638866 28.2601889,121.090418 20.3832659,110.242375 C16.0767949,104.773118 13.7073209,98.0292309 13.6464238,91.0682861 C14.4214335,75.894497 24.6135928,62.8297508 39.14278,58.3859649 C43.4928441,57.118873 48.0205825,56.5704098 52.5473684,56.7622132 C58.8592114,57.2403945 64.9904211,59.0915482 70.5122807,62.1862348 C78.9765182,67.1611336 83.0877193,65.8483131 88.9263158,60.9425101 C92.3811066,58.1095816 96.1468286,48.8852901 90.3082321,46.7433198 C88.3992771,46.1205077 86.4480597,45.6355898 84.4696356,45.2923077 C73.6215924,43.1848853 54.6547908,41.1811066 47.6761134,37.2080972 C36.5862348,31.0931174 29.1238866,18.4831309 33.4078273,6.18407557 Z" fill="url(#bunnyLinearGradient-4)"></path>
            <path d="M77.9055331,100.154386 C82.3276653,76.9036437 58.731444,54.7238866 40.6283401,58.0404858 L41.8375169,57.7641026 C40.8701754,57.97139 39.9373819,58.2132254 39.0391363,58.4896086 C24.509949,62.9333945 14.3177897,75.9981407 13.54278,91.1719298 C13.6528921,98.1532395 16.0838883,104.899254 20.4523617,110.346019 C28.3292848,121.194062 47.5033738,137.74251 57.4186235,147.554116 C61.6767603,143.007107 62.1530518,136.093662 58.5587045,131.005668 C50.4053981,120.917679 36.0334683,114.733603 36.0334683,100.188934 C36.0334683,88.6072022 45.4223169,79.2183536 57.0040486,79.2183536 C68.5857803,79.2183536 77.9746289,88.6072022 77.9746289,100.188934 L77.9055331,100.154386 Z" fill="url(#bunnyLinearGradient-5)"></path>
            <path d="M33.4078273,6.18407557 L105.958435,45.7068826 L105.958435,45.7068826 L108.031309,46.8469636 C109.758704,48.194332 111.4861,50.8890688 109.240486,55.8639676 C105.785695,63.2917679 91.9665317,70.4777328 76.039946,64.8464238 C81.0148448,66.2974359 84.4005398,64.6391363 88.7535762,60.977058 C92.2083671,58.1441296 95.9740891,48.9198381 90.1354926,46.7778677 C88.2265375,46.1550556 86.2753201,45.6701377 84.2968961,45.3268556 C73.4488529,43.2194332 54.4820513,41.2156545 47.5033738,37.2426451 C36.5862348,31.0931174 29.1238866,18.4831309 33.4078273,6.18407557 Z" fill="url(#bunnyLinearGradient-6)"></path>
            <path d="M33.4078273,6.18407557 C40.9047233,33.8224022 86.5425101,36.1025641 109.413225,47.6415655 L33.4078273,6.18407557 Z" fill="url(#bunnyLinearGradient-7)"></path>
            <path d="M58.3859649,131.005668 C50.4053981,120.917679 36.0334683,114.733603 36.0334683,100.188934 C36.0742963,89.6400826 43.9448488,80.7635198 54.4129555,79.4601889 C37.7413202,79.5170569 24.2404037,93.0179734 24.1834853,109.689609 C24.1797569,111.732483 24.3881624,113.770225 24.8053981,115.77004 C31.4040486,123.232389 40.9392713,132.042105 48.9889339,139.504453 C52.1327935,142.441026 55.0348178,145.204858 57.4186235,147.554116 C59.402257,145.255833 60.6111128,142.390845 60.8734143,139.366262 L60.8734143,139.366262 C61.0621951,136.372572 60.1805504,133.409266 58.3859649,131.005668 L58.3859649,131.005668 Z" fill="url(#bunnyLinearGradient-8)"></path>
            <path d="M77.8018893,102.641835 C77.9109629,101.817067 77.9686541,100.986314 77.9746289,100.154386 C82.3276653,76.9036437 58.731444,54.7238866 40.6283401,58.0404858 C44.4938573,57.1063537 48.4699523,56.7110694 52.4437247,56.865857 C76.1781377,57.8331984 82.811336,83.191363 77.8018893,102.641835 Z" fill="url(#bunnyLinearGradient-9)"></path>
            <path d="M7.80782726,51.2690958 L7.80782726,51.2690958 C12.1255536,51.2881168 15.6156545,54.7937028 15.6156545,59.111471 L15.6156545,66.9192982 L7.80782726,66.9192982 C3.49568334,66.9192982 0,63.4236149 0,59.111471 L0,59.111471 C0,54.7937028 3.49010095,51.2881168 7.80782726,51.2690958 L7.80782726,51.2690958 Z" fill="url(#bunnyLinearGradient-10)"></path>
        </g>
    </g>
</svg>
