<svg width="20" height="24" viewBox="0 0 20 24" fill="none" xmlns="http://www.w3.org/2000/svg">
<path d="M10.1204 0L0 5.16129V18.0645L10.1204 23.0108L20 17.8495V5.16129L10.1204 0Z" fill="url(#paint0_linear_1860_671)"/>
<path d="M14.1129 11.1634C14.0116 10.9608 13.8945 10.765 13.764 10.5781L12.0262 12.7975C12.1208 13.0406 12.1703 13.304 12.1703 13.5809C12.1703 13.7137 12.159 13.8442 12.1343 13.968C11.952 14.9967 11.0538 15.7778 9.97114 15.7778C9.8811 15.7778 9.79332 15.7733 9.70553 15.762C8.96272 15.6742 8.33246 15.2128 8.01058 14.5735C7.91379 14.3867 7.84401 14.1841 7.808 13.968H5.83393H5.40625C5.42876 14.1121 5.46027 14.2562 5.49854 14.3957C5.69437 15.1498 6.07703 15.8296 6.59474 16.381C7.06744 16.8875 7.65493 17.2859 8.3122 17.5403C8.82767 17.7383 9.3859 17.8464 9.96889 17.8464C12.2671 17.8464 14.1759 16.1672 14.5315 13.968C14.5698 13.7272 14.5901 13.4773 14.5901 13.2252C14.5991 12.4869 14.4235 11.7869 14.1129 11.1634Z" fill="white"/>
<path d="M10.0362 8.60577L8.35699 10.7532L9.06153 11.586L9.73456 12.3783L10.4706 11.4397L12.2308 9.19101L13.4464 7.63562L14.1149 6.77801V5.69531H12.3119H5.96875V7.63562H10.7948L10.0362 8.60577Z" fill="white"/>
<defs>
<linearGradient id="paint0_linear_1860_671" x1="10" y1="0" x2="10" y2="23.0108" gradientUnits="userSpaceOnUse">
<stop stop-color="#FDBC25"/>
<stop offset="1" stop-color="#FF9C00"/>
</linearGradient>
</defs>
</svg>
