<?xml version="1.0" encoding="UTF-8"?>
<svg version="1.1" viewBox="0 0 1600 1600" width="24" height="24" xmlns="http://www.w3.org/2000/svg">
<path transform="translate(0)" d="m0 0h1600v1600h-1600v-1600z" fill="#FCFDFE"/>
<path transform="translate(1258 240)" d="m0 0c3.48-0.01 6.96-0.02 10.4-0.02 1.63-0.01 3.27-0.01 4.9-0.02 26.8-0.1 51.9 2.1 73.8 19.1l3 2v2c0.85 0.31 0.85 0.31 1.71 0.62 3.15 1.9 4.97 4.54 7.04 7.51 0.44 0.61 0.87 1.23 1.32 1.86 3.14 4.58 5.87 9.3 8.37 14.3 0.32 0.63 0.64 1.25 0.96 1.89 8.94 18.4 8.89 39.6 8.98 59.7 0.01 1.22 0.01 1.22 0.02 2.46 0.19 25-4.03 47-20.4 66.7-0.67 0.89-0.67 0.89-1.35 1.8-13.4 17.2-35.5 24.1-56.2 26.7-0.99 0.11-1.98 0.21-3 0.32-0.93 0.11-1.86 0.22-2.82 0.34-0.84 0.09-1.68 0.18-2.54 0.27-2.46 0.43-2.46 0.43-4.08 3.57-0.46 2.99-0.46 2.99-0.63 6.39-0.13 1.9-0.13 1.9-0.25 3.84l-0.24 4.02c-0.09 1.31-0.17 2.62-0.26 3.97-0.47 7.16-0.47 7.16-0.59 14.3-0.03 3.36-0.38 6.46-0.89 9.79-1.46 10.2-2.2 20.5-3.02 30.8-0.48 5.94-0.97 11.9-1.46 17.8-0.18 2.16-0.36 4.32-0.53 6.48-1.39 16.9-2.84 33.8-4.28 50.6-0.37 4.34-0.74 8.69-1.11 13-1.22 14.2-2.44 28.4-3.65 42.6-3.12 36.3-6.22 72.6-9.18 109-1.73 21.3-3.5 42.6-5.28 63.9-1.77 21.2-3.54 42.4-5.28 63.6-0.14 1.67-0.27 3.34-0.41 5.02-0.1 1.25-0.1 1.25-0.21 2.52-3.2 39-6.47 78.1-9.79 117-3.85 45.2-3.85 45.2-7.6 90.5-0.28 3.39-0.56 6.77-0.84 10.2-1.34 16.3-2.65 32.6-3.95 48.8-0.86 10.9-1.74 21.8-2.61 32.6-0.55 6.79-1.1 13.6-1.63 20.4-3.91 49.9-3.91 49.9-6.8 67.6-0.27 1.65-0.27 1.65-0.54 3.34-1.92 10.6-5.79 20.6-11.2 29.9-0.58 1-0.58 1-1.16 2.02-16.8 28.7-44.6 47.2-76.2 56.2-9.01 1.89-18.2 1.93-27.3 2.04-1.41 0.02-2.81 0.04-4.22 0.06-3.9 0.06-7.81 0.11-11.7 0.15-2.55 0.03-5.09 0.06-7.64 0.1-51.3 0.62-103 0.55-154 0.55h-30.9c-3.01 0-6.02 0.01-9.02 0.01h-2.27c-20.9 0-41.8 0.01-62.6 0.01h-2.36-11.8-2.37-4.75c-24.8 0-49.6 0-74.3 0.02-28 0.01-56.1 0.02-84.1 0.02h-8.97-2.22c-11.8 0-23.5 0.01-35.3 0.01-11.8 0.01-23.6 0.01-35.4 0.01-6.37-0.01-12.8-0.01-19.1 0-5.84 0.01-11.7 0.01-17.5 0-2.11 0-4.21 0-6.31 0.01-27.3 0.06-50.6-3-75.2-15.8-0.72-0.37-1.43-0.73-2.17-1.11-4.48-2.39-8.1-5.08-12-8.39-0.82-0.49-1.64-0.98-2.49-1.49-22.7-13.7-36.3-42.6-42.5-67.4-3.32-15.8-4.55-31.8-5.6-47.9-0.19-2.86-0.38-5.73-0.57-8.59-0.12-1.77-0.24-3.53-0.35-5.3-0.22-3.3-0.47-6.2-1.52-9.36-0.13-1.37-0.22-2.75-0.28-4.12-0.04-0.79-0.07-1.58-0.11-2.39-0.07-1.66-0.14-3.32-0.21-4.97-0.04-0.79-0.08-1.58-0.12-2.39-0.03-0.72-0.06-1.44-0.09-2.18-0.14-2.16-0.14-2.16-1.19-4.95-0.13-1.4-0.22-2.8-0.28-4.2-0.04-0.82-0.07-1.63-0.11-2.47-0.04-0.85-0.07-1.7-0.11-2.58-0.07-1.67-0.14-3.34-0.22-5.01-0.03-0.74-0.06-1.49-0.09-2.25-0.14-1.88-0.38-3.76-0.66-5.62-0.66-4.82-0.96-9.62-1.25-14.5-0.12-2.06-0.25-4.12-0.38-6.17-0.2-3.22-0.4-6.44-0.59-9.66-0.2-3.12-0.39-6.24-0.59-9.36-0.06-0.97-0.11-1.93-0.17-2.92-0.09-1.35-0.09-1.35-0.17-2.72-0.08-1.18-0.08-1.18-0.15-2.39-0.22-2.14-0.7-4.09-1.23-6.18-0.2-2.81-0.37-5.62-0.5-8.44-0.21-5.52-0.21-5.52-1-11-0.79-4.11-0.83-8.27-1-12.4-0.23-5.79-0.65-11.4-1.5-17.1-0.28-3.59-0.43-7.18-0.6-10.8-0.17-3.12-0.38-6.11-0.9-9.19-0.66-4.01-0.78-7.99-0.93-12-0.32-7.12-1.04-14-2.16-21-0.51-3.71-0.48-7.23-0.41-11-0.23-0.95-0.23-0.95-0.48-1.91-0.58-2.33-0.71-4.47-0.8-6.86-0.05-1.36-0.05-1.36-0.11-2.75-0.04-0.94-0.07-1.88-0.11-2.85-0.21-5.64-0.52-11.1-1.5-16.6-0.19-2.75-0.36-5.49-0.5-8.25-0.29-5.39-0.66-10.7-1.25-16.1-0.45-4.83-0.69-9.68-0.97-14.5-0.44-7-1.25-14-2.03-20.9-0.13-1.19-0.27-2.39-0.4-3.61-0.27-2.45-0.55-4.9-0.83-7.35-0.64-5.83-1.12-11.5-1-17.4-0.02-2.68-0.54-5.24-1.02-7.88-0.29-3.57-0.43-7.15-0.6-10.7-0.16-3.11-0.37-6.1-0.9-9.17-0.85-5.31-0.9-10.7-1.1-16-0.06-1.3-0.06-1.3-0.12-2.62-0.03-0.79-0.06-1.57-0.09-2.38-0.12-2.27-0.12-2.27-1.19-5.08-0.13-1.43-0.22-2.87-0.28-4.31-0.04-0.83-0.07-1.66-0.11-2.51-0.04-0.86-0.07-1.73-0.11-2.62-0.07-1.7-0.14-3.41-0.22-5.12-0.03-0.75-0.06-1.51-0.09-2.29-0.13-2.14-0.13-2.14-0.69-4.14-0.55-2.24-0.69-4.3-0.78-6.6-0.04-0.87-0.07-1.73-0.11-2.63-0.05-1.34-0.05-1.34-0.11-2.72-0.2-5.14-0.46-10-1.5-15.1-0.24-2.95-0.37-5.91-0.5-8.87-0.19-4.25-0.4-8.43-1-12.6-0.59-4.17-0.77-8.29-0.93-12.5-0.33-7.32-1.04-14.4-2.16-21.7-0.41-3.3-0.41-3.3-0.4-6.97 0.13-3.12 0.13-3.12-0.49-5.25-0.56-2.25-0.71-4.29-0.8-6.6-0.04-0.86-0.07-1.71-0.11-2.6-0.05-1.33-0.05-1.33-0.11-2.69-0.07-1.76-0.14-3.51-0.22-5.27-0.03-0.78-0.06-1.55-0.09-2.35-0.14-1.93-0.38-3.85-0.66-5.76-0.63-4.54-0.93-9.06-1.21-13.6-0.12-1.91-0.25-3.83-0.37-5.75-0.19-2.99-0.38-5.97-0.57-8.96-0.64-10.2-1.28-20.4-2.99-30.5-0.39-2.96-0.39-2.96-0.38-6.59-0.01-2.8-0.26-4.72-1.01-7.37-0.13-1.44-0.22-2.89-0.28-4.33-0.05-1.23-0.05-1.23-0.11-2.48-0.04-0.85-0.07-1.69-0.11-2.56-0.07-1.68-0.14-3.35-0.22-5.03-0.03-0.74-0.06-1.48-0.09-2.24-0.16-2.43-0.16-2.43-0.66-5.07-0.67-4.16-0.94-8.3-1.21-12.5-0.12-1.82-0.25-3.64-0.37-5.46-0.19-2.84-0.38-5.67-0.57-8.51-0.7-10.5-1.51-21-2.99-31.4-0.39-3.42-0.39-3.42-0.38-7.11-0.01-2.77-0.26-4.7-1.01-7.31-0.12-1.34-0.2-2.68-0.24-4.03-0.03-0.78-0.07-1.56-0.1-2.36-0.03-0.84-0.06-1.68-0.09-2.55-0.35-7.78-0.9-15.5-1.7-23.2-0.52-5.03-0.97-10.1-1.35-15.1-0.23-3.02-0.47-6.04-0.72-9.06-0.11-1.5-0.22-3.01-0.33-4.51-0.14-2.12-0.32-4.24-0.49-6.36-0.14-1.85-0.14-1.85-0.28-3.73-0.44-3.08-0.44-3.08-2.47-4.92-2.41-1.21-4.18-1.62-6.87-1.86-0.9-0.09-1.79-0.19-2.72-0.28-0.95-0.1-1.91-0.19-2.89-0.29-18.6-2.21-40.3-9.99-52.7-24.9-0.69-0.91-1.37-1.81-2.07-2.75-0.64-0.62-1.28-1.25-1.94-1.89-14.4-14.7-18.2-40.2-18.3-59.9-0.01-0.92-0.01-1.84-0.02-2.79-0.01-1.94-0.01-3.88-0.02-5.81-0.01-2.9-0.04-5.8-0.07-8.7-0.16-28.2 4.97-53.9 25.2-74.8 8.53-7.94 18.7-13.1 29.4-17.5 0.83-0.34 1.66-0.68 2.51-1.03 4.83-1.9 9.23-2.99 14.4-3.34 1.92-0.09 1.92-0.09 3.82-1.19 2.11-0.1 4.23-0.13 6.34-0.13 0.66 0 1.32 0 2-0.01h6.73c1.62 0 3.25 0 4.87-0.01 4.49 0 8.98-0.01 13.5-0.01 4.88 0 9.75-0.01 14.6-0.01 8.55-0.01 17.1-0.02 25.7-0.03 12.7 0 25.4-0.02 38.2-0.03l64.2-0.06c21.2-0.02 42.5-0.03 63.7-0.06h4c5.36-0.01 10.7-0.01 16.1-0.02 15-0.01 30-0.03 44.9-0.04h2.07l99.6-0.09c11.5-0.01 23-0.02 34.6-0.03h2.17l99.4-0.09c2.15-0.01 4.3-0.01 6.44-0.01 12.8-0.01 25.6-0.03 38.5-0.04 30.5-0.03 61-0.06 91.6-0.09h2.04c57.5-0.05 115-0.1 172-0.15 8-0.01 16-0.02 24-0.03 9.58 0 19.2-0.01 28.8-0.02 4.81 0 9.62-0.01 14.4-0.01 0.89 0 1.78 0 2.7-0.01h5.3c4.21 0 8.42-0.01 12.6-0.01h4.88 2.42c5.09-0.01 10.2-0.02 15.3-0.03z" fill="#FCFDFE"/>
<path transform="translate(1258 240)" d="m0 0c3.48-0.01 6.96-0.02 10.4-0.02 1.63-0.01 3.27-0.01 4.9-0.02 26.8-0.1 51.9 2.1 73.8 19.1l3 2v2c0.85 0.31 0.85 0.31 1.71 0.62 3.15 1.9 4.97 4.54 7.04 7.51 0.44 0.61 0.87 1.23 1.32 1.86 3.14 4.58 5.87 9.3 8.37 14.3 0.32 0.63 0.64 1.25 0.96 1.89 8.94 18.4 8.89 39.6 8.98 59.7 0.01 1.22 0.01 1.22 0.02 2.46 0.19 25-4.03 47-20.4 66.7-0.67 0.89-0.67 0.89-1.35 1.8-13.4 17.2-35.5 24.1-56.2 26.7-0.99 0.11-1.98 0.21-3 0.32-0.93 0.11-1.86 0.22-2.82 0.34-0.84 0.09-1.68 0.18-2.54 0.27-2.46 0.43-2.46 0.43-4.08 3.57-0.46 2.99-0.46 2.99-0.63 6.39-0.13 1.9-0.13 1.9-0.25 3.84l-0.24 4.02c-0.09 1.31-0.17 2.62-0.26 3.97-0.47 7.16-0.47 7.16-0.59 14.3-0.03 3.36-0.38 6.46-0.89 9.79-1.46 10.2-2.2 20.5-3.02 30.8-0.48 5.94-0.97 11.9-1.46 17.8-0.18 2.16-0.36 4.32-0.53 6.48-1.39 16.9-2.84 33.8-4.28 50.6-0.37 4.34-0.74 8.69-1.11 13-1.22 14.2-2.44 28.4-3.65 42.6-3.12 36.3-6.22 72.6-9.18 109-1.73 21.3-3.5 42.6-5.28 63.9-1.77 21.2-3.54 42.4-5.28 63.6-0.14 1.67-0.27 3.34-0.41 5.02-0.1 1.25-0.1 1.25-0.21 2.52-3.2 39-6.47 78.1-9.79 117-3.85 45.2-3.85 45.2-7.6 90.5-0.28 3.39-0.56 6.77-0.84 10.2-1.34 16.3-2.65 32.6-3.95 48.8-0.86 10.9-1.74 21.8-2.61 32.6-0.55 6.79-1.1 13.6-1.63 20.4-3.91 49.9-3.91 49.9-6.8 67.6-0.27 1.65-0.27 1.65-0.54 3.34-1.92 10.6-5.79 20.6-11.2 29.9-0.58 1-0.58 1-1.16 2.02-16.8 28.7-44.6 47.2-76.2 56.2-9.01 1.89-18.2 1.93-27.3 2.04-1.41 0.02-2.81 0.04-4.22 0.06-3.9 0.06-7.81 0.11-11.7 0.15-2.55 0.03-5.09 0.06-7.64 0.1-51.3 0.62-103 0.55-154 0.55h-30.9c-3.01 0-6.02 0.01-9.02 0.01h-2.27c-20.9 0-41.8 0.01-62.6 0.01h-2.36-11.8-2.37-4.75c-24.8 0-49.6 0-74.3 0.02-28 0.01-56.1 0.02-84.1 0.02h-8.97-2.22c-11.8 0-23.5 0.01-35.3 0.01-11.8 0.01-23.6 0.01-35.4 0.01-6.37-0.01-12.8-0.01-19.1 0-5.84 0.01-11.7 0.01-17.5 0-2.11 0-4.21 0-6.31 0.01-27.3 0.06-50.6-3-75.2-15.8-0.72-0.37-1.43-0.73-2.17-1.11-4.48-2.39-8.1-5.08-12-8.39-0.82-0.49-1.64-0.98-2.49-1.49-22.7-13.7-36.3-42.6-42.5-67.4-3.32-15.8-4.55-31.8-5.6-47.9-0.19-2.86-0.38-5.73-0.57-8.59-0.12-1.77-0.24-3.53-0.35-5.3-0.22-3.3-0.47-6.2-1.52-9.36-0.13-1.37-0.22-2.75-0.28-4.12-0.04-0.79-0.07-1.58-0.11-2.39-0.07-1.66-0.14-3.32-0.21-4.97-0.04-0.79-0.08-1.58-0.12-2.39-0.03-0.72-0.06-1.44-0.09-2.18-0.14-2.16-0.14-2.16-1.19-4.95-0.13-1.4-0.22-2.8-0.28-4.2-0.04-0.82-0.07-1.63-0.11-2.47-0.04-0.85-0.07-1.7-0.11-2.58-0.07-1.67-0.14-3.34-0.22-5.01-0.03-0.74-0.06-1.49-0.09-2.25-0.14-1.88-0.38-3.76-0.66-5.62-0.66-4.82-0.96-9.62-1.25-14.5-0.12-2.06-0.25-4.12-0.38-6.17-0.2-3.22-0.4-6.44-0.59-9.66-0.2-3.12-0.39-6.24-0.59-9.36-0.06-0.97-0.11-1.93-0.17-2.92-0.09-1.35-0.09-1.35-0.17-2.72-0.08-1.18-0.08-1.18-0.15-2.39-0.22-2.14-0.7-4.09-1.23-6.18-0.2-2.81-0.37-5.62-0.5-8.44-0.21-5.52-0.21-5.52-1-11-0.79-4.11-0.83-8.27-1-12.4-0.23-5.79-0.65-11.4-1.5-17.1-0.28-3.59-0.43-7.18-0.6-10.8-0.17-3.12-0.38-6.11-0.9-9.19-0.66-4.01-0.78-7.99-0.93-12-0.32-7.12-1.04-14-2.16-21-0.51-3.71-0.48-7.23-0.41-11-0.23-0.95-0.23-0.95-0.48-1.91-0.58-2.33-0.71-4.47-0.8-6.86-0.05-1.36-0.05-1.36-0.11-2.75-0.04-0.94-0.07-1.88-0.11-2.85-0.21-5.64-0.52-11.1-1.5-16.6-0.19-2.75-0.36-5.49-0.5-8.25-0.29-5.39-0.66-10.7-1.25-16.1-0.45-4.83-0.69-9.68-0.97-14.5-0.44-7-1.25-14-2.03-20.9-0.13-1.19-0.27-2.39-0.4-3.61-0.27-2.45-0.55-4.9-0.83-7.35-0.64-5.83-1.12-11.5-1-17.4-0.02-2.68-0.54-5.24-1.02-7.88-0.29-3.57-0.43-7.15-0.6-10.7-0.16-3.11-0.37-6.1-0.9-9.17-0.85-5.31-0.9-10.7-1.1-16-0.06-1.3-0.06-1.3-0.12-2.62-0.03-0.79-0.06-1.57-0.09-2.38-0.12-2.27-0.12-2.27-1.19-5.08-0.13-1.43-0.22-2.87-0.28-4.31-0.04-0.83-0.07-1.66-0.11-2.51-0.04-0.86-0.07-1.73-0.11-2.62-0.07-1.7-0.14-3.41-0.22-5.12-0.03-0.75-0.06-1.51-0.09-2.29-0.13-2.14-0.13-2.14-0.69-4.14-0.55-2.24-0.69-4.3-0.78-6.6-0.04-0.87-0.07-1.73-0.11-2.63-0.05-1.34-0.05-1.34-0.11-2.72-0.2-5.14-0.46-10-1.5-15.1-0.24-2.95-0.37-5.91-0.5-8.87-0.19-4.25-0.4-8.43-1-12.6-0.59-4.17-0.77-8.29-0.93-12.5-0.33-7.32-1.04-14.4-2.16-21.7-0.41-3.3-0.41-3.3-0.4-6.97 0.13-3.12 0.13-3.12-0.49-5.25-0.56-2.25-0.71-4.29-0.8-6.6-0.04-0.86-0.07-1.71-0.11-2.6-0.05-1.33-0.05-1.33-0.11-2.69-0.07-1.76-0.14-3.51-0.22-5.27-0.03-0.78-0.06-1.55-0.09-2.35-0.14-1.93-0.38-3.85-0.66-5.76-0.63-4.54-0.93-9.06-1.21-13.6-0.12-1.91-0.25-3.83-0.37-5.75-0.19-2.99-0.38-5.97-0.57-8.96-0.64-10.2-1.28-20.4-2.99-30.5-0.39-2.96-0.39-2.96-0.38-6.59-0.01-2.8-0.26-4.72-1.01-7.37-0.13-1.44-0.22-2.89-0.28-4.33-0.05-1.23-0.05-1.23-0.11-2.48-0.04-0.85-0.07-1.69-0.11-2.56-0.07-1.68-0.14-3.35-0.22-5.03-0.03-0.74-0.06-1.48-0.09-2.24-0.16-2.43-0.16-2.43-0.66-5.07-0.67-4.16-0.94-8.3-1.21-12.5-0.12-1.82-0.25-3.64-0.37-5.46-0.19-2.84-0.38-5.67-0.57-8.51-0.7-10.5-1.51-21-2.99-31.4-0.39-3.42-0.39-3.42-0.38-7.11-0.01-2.77-0.26-4.7-1.01-7.31-0.12-1.34-0.2-2.68-0.24-4.03-0.03-0.78-0.07-1.56-0.1-2.36-0.03-0.84-0.06-1.68-0.09-2.55-0.35-7.78-0.9-15.5-1.7-23.2-0.52-5.03-0.97-10.1-1.35-15.1-0.23-3.02-0.47-6.04-0.72-9.06-0.11-1.5-0.22-3.01-0.33-4.51-0.14-2.12-0.32-4.24-0.49-6.36-0.14-1.85-0.14-1.85-0.28-3.73-0.44-3.08-0.44-3.08-2.47-4.92-2.41-1.21-4.18-1.62-6.87-1.86-0.9-0.09-1.79-0.19-2.72-0.28-0.95-0.1-1.91-0.19-2.89-0.29-18.6-2.21-40.3-9.99-52.7-24.9-0.69-0.91-1.37-1.81-2.07-2.75-0.64-0.62-1.28-1.25-1.94-1.89-14.4-14.7-18.2-40.2-18.3-59.9-0.01-0.92-0.01-1.84-0.02-2.79-0.01-1.94-0.01-3.88-0.02-5.81-0.01-2.9-0.04-5.8-0.07-8.7-0.16-28.2 4.97-53.9 25.2-74.8 8.53-7.94 18.7-13.1 29.4-17.5 0.83-0.34 1.66-0.68 2.51-1.03 4.83-1.9 9.23-2.99 14.4-3.34 1.92-0.09 1.92-0.09 3.82-1.19 2.11-0.1 4.23-0.13 6.34-0.13 0.66 0 1.32 0 2-0.01h6.73c1.62 0 3.25 0 4.87-0.01 4.49 0 8.98-0.01 13.5-0.01 4.88 0 9.75-0.01 14.6-0.01 8.55-0.01 17.1-0.02 25.7-0.03 12.7 0 25.4-0.02 38.2-0.03l64.2-0.06c21.2-0.02 42.5-0.03 63.7-0.06h4c5.36-0.01 10.7-0.01 16.1-0.02 15-0.01 30-0.03 44.9-0.04h2.07l99.6-0.09c11.5-0.01 23-0.02 34.6-0.03h2.17l99.4-0.09c2.15-0.01 4.3-0.01 6.44-0.01 12.8-0.01 25.6-0.03 38.5-0.04 30.5-0.03 61-0.06 91.6-0.09h2.04c57.5-0.05 115-0.1 172-0.15 8-0.01 16-0.02 24-0.03 9.58 0 19.2-0.01 28.8-0.02 4.81 0 9.62-0.01 14.4-0.01 0.89 0 1.78 0 2.7-0.01h5.3c4.21 0 8.42-0.01 12.6-0.01h4.88 2.42c5.09-0.01 10.2-0.02 15.3-0.03zm-901 212c-1.81 3.5-1.32 6.96-1.06 10.8 0.06 0.94 0.11 1.88 0.16 2.84 1.06 16.8 2.72 33.6 4.25 50.3 0.78 8.5 1.54 17 2.31 25.5 0.09 0.97 0.17 1.94 0.26 2.93 2.1 23.3 4.03 46.6 5.96 70 0.77 9.27 1.54 18.6 2.31 27.8 0.08 1 0.08 1 0.17 2.02 0.23 2.71 0.45 5.42 0.68 8.13l1.92 23c0.24 2.89 0.48 5.78 0.72 8.67 0.06 0.73 0.12 1.45 0.19 2.2 0.37 4.53 0.75 9.06 1.13 13.6 2.93 35.1 5.84 70.1 8.73 105 0.41 4.9 0.81 9.81 1.21 14.7 0.27 3.23 0.54 6.46 0.8 9.69 0.07 0.79 0.13 1.59 0.2 2.4 0.7 8.51 1.4 17 2.1 25.5 0.71 8.63 1.42 17.2 2.13 25.9 0.06 0.69 0.11 1.38 0.17 2.08 1.74 21.1 3.62 42.2 5.57 63.2 1.28 13.8 2.45 27.6 3.29 41.5 0.81 13.1 2.02 26.2 3.21 39.4 0.68 7.49 1.34 15 2.01 22.5 0.06 0.73 0.13 1.46 0.2 2.22 1 11.3 1.95 22.6 2.81 33.9 1.26 16.6 2.76 33.2 4.27 49.8 1.25 13.9 2.46 27.8 3.44 41.7 1.22 17.3 2.7 34.6 4.27 51.8 0.26 2.84 0.51 5.68 0.76 8.52 2.7 38.6 2.7 38.6 22.7 70.4 1.24 1.15 1.24 1.15 2.5 2.33 21.4 18.7 46.3 21 73.6 20.9h5.48c3.9 0 7.8-0.01 11.7-0.03 6.26-0.02 12.5-0.03 18.8-0.03 11.1-0.02 22.3-0.04 33.4-0.07 18.6-0.05 37.3-0.08 55.9-0.1 2.17 0 4.33-0.01 6.5-0.01 29.7-0.04 59.3 0.09 89 0.53 33.1 0.48 66.2 0.63 99.4 0.51 2.95-0.01 5.91-0.02 8.86-0.03 34-0.12 68-0.27 102-0.42 9.46-0.05 18.9-0.09 28.4-0.13 0.67 0 1.34-0.01 2.03-0.01 11.3-0.05 22.5-0.1 33.8-0.15 7.47-0.03 14.9-0.07 22.4-0.1 4.64-0.02 9.28-0.04 13.9-0.06l6.36-0.03c2.94-0.02 5.87-0.03 8.8-0.04 1.39-0.01 1.39-0.01 2.81-0.01 4.89-0.02 9.78-0.03 14.7-0.01 1.03 0 2.06 0 3.12 0.01 1.95 0 3.91 0.01 5.86 0.02 22.2 0.06 41.8-5.03 58.4-20.6 11.7-11.8 18.1-25 20.4-41.4 0.16-1.05 0.31-2.11 0.47-3.19 1.37-9.81 2.29-19.6 3.1-29.5 0.12-1.51 0.25-3.03 0.38-4.55 0.24-2.92 0.48-5.84 0.72-8.76 0.29-3.53 0.59-7.05 0.89-10.6 0.48-5.72 0.83-11.4 1.16-17.2 0.23-2.61 0.66-4.74 1.28-7.25 0.19-1.34 0.35-2.69 0.49-4.04 0.08-0.78 0.16-1.57 0.24-2.38 0.08-0.84 0.16-1.68 0.25-2.54 0.13-1.33 0.13-1.33 0.26-2.68 0.84-8.74 1.45-17.5 2.02-26.2 0.98-14.8 2.05-29.5 3.31-44.2 0.05-0.69 0.11-1.38 0.17-2.1 0.56-6.63 1.18-13.2 2-19.8 1.22-9.83 1.95-19.7 2.58-29.6 0.31-4.82 0.64-9.65 0.96-14.5 0.06-0.94 0.12-1.89 0.19-2.86 0.52-7.85 1.07-15.7 1.66-23.6 0.07-1.03 0.15-2.07 0.23-3.14 0.1-1.4 0.1-1.4 0.21-2.83 0.09-1.18 0.09-1.18 0.18-2.39 0.25-2.14 0.25-2.14 0.74-4 0.71-2.95 0.91-5.87 1.16-8.89 0.06-0.68 0.12-1.36 0.17-2.05 0.19-2.26 0.38-4.51 0.56-6.76 0.06-0.78 0.13-1.56 0.19-2.36 0.81-9.82 1.56-19.6 2.23-29.5 0.06-0.94 0.13-1.89 0.19-2.87 0.32-4.62 0.62-9.24 0.92-13.9 0.61-9.22 1.45-18.3 2.67-27.5 0.49-3.93 0.76-7.79 0.92-11.7 0.29-5.85 0.8-11.6 1.5-17.4 0.72-6.05 1.2-12 1.44-18.1 0.41-9.85 1.22-19.7 2.06-29.5 0.07-0.78 0.13-1.56 0.2-2.37 0.19-2.25 0.39-4.5 0.58-6.75 0.12-1.31 0.23-2.62 0.35-3.98 0.31-2.88 0.78-5.62 1.37-8.46 0.42-3.49 0.7-7 1-10.5 0.13-1.35 0.13-1.35 0.25-2.72 0.57-6.56 0.91-13.1 1.2-19.7 0.49-11 1.41-22 2.43-33 0.18-1.98 0.36-3.96 0.53-5.94 1.03-11.3 2.11-22.6 3.22-33.9 1.39-14.2 2.5-28.3 3.53-42.5 0.42-5.82 0.85-11.6 1.28-17.4 0.06-0.87 0.13-1.73 0.19-2.61 0.94-12.6 2.03-25.1 3.25-37.7 1.02-10.6 1.88-21.3 2.69-32 0.09-1.26 0.09-1.26 0.19-2.54 0.59-7.81 1.18-15.6 1.74-23.4 1.15-16 2.72-31.9 4.35-47.8 0.32-3.12 0.63-6.24 0.95-9.36 0.17-1.72 0.36-3.44 0.54-5.15 0.74-7.19 0.78-14.3 0.73-21.5-0.01-1.78-0.01-1.78-0.02-3.6-0.01-2.91-0.03-5.81-0.05-8.71-3.24-1.08-5.58-1.13-9-1.13-1.26 0-2.52 0-3.83-0.01-1.41 0-2.83 0.01-4.24 0.01-1.5-0.01-3-0.01-4.5-0.01-4.15-0.01-8.3-0.01-12.4-0.01-4.51 0-9.01 0-13.5-0.01-8.94-0.01-17.9-0.01-26.8-0.01-10.7-0.01-21.4-0.01-32.1-0.02-25.9-0.02-51.8-0.03-77.7-0.04-12.2-0.01-24.5-0.01-36.7-0.02-41.9-0.02-83.8-0.03-126-0.04h-7.89-3.95-19.8-3.97c-42.6-0.01-85.1-0.04-128-0.07-45-0.03-89.9-0.05-135-0.06h-14.8-3.68c-19.6 0-39.2-0.02-58.7-0.04-19.6-0.02-39.3-0.02-59-0.01-11.7 0-23.4 0-35.1-0.03-7.8-0.01-15.6-0.01-23.4 0.01-4.45 0-8.9 0-13.4-0.01-4.04-0.02-8.09-0.02-12.1 0-1.46 0-2.92 0-4.38-0.01-1.97-0.01-3.94 0-5.91 0.01h-3.31c-2.78 0.26-2.78 0.26-4.55 2.3z" fill="#F46622"/>
<path transform="translate(292,243)" d="m0 0c1.91 0.37 3.83 0.69 5.75 1 1.03 0.16 2.05 0.33 3.11 0.5 1.55 0.25 1.55 0.25 3.14 0.5 2 0.33 4 0.66 6 1-3.27 1.91-5.99 2.36-9.75 2.62-0.98 0.08-1.97 0.15-2.98 0.23-0.75 0.05-1.5 0.1-2.27 0.15l-1 4-4 1v2c-2.96 2.17-5.51 3.84-9 5l-3 3h-2c-0.38 0.9-0.38 0.9-0.76 1.81-1.4 2.48-2.74 3.56-5.05 5.19-0.72 0.52-1.43 1.04-2.17 1.58-1.55 1.09-3.12 2.14-4.71 3.17-3.55 3.46-5.3 7.77-7.31 12.2h-2c-0.56 2.72-1.04 5.36-1.31 8.12-0.69 2.88-0.69 2.88-2.63 4.76-2.06 1.12-2.06 1.12-4.06 1.12-0.16 0.91-0.16 0.91-0.33 1.84-0.85 4.48-1.83 8.81-3.23 13.2-1.38 4.36-1.93 8.52-2.23 13.1-0.21 1.93-0.21 1.93-1.21 2.93-0.37 5.73-0.01 11.4 1 17 0.15 0.84 0.29 1.68 0.44 2.55 0.98 5.51 0.98 5.51 3.56 10.4l-1 2h2l2 2c1.02 0.96 1.02 0.96 2.06 1.94 1.94 2.06 1.94 2.06 2.94 5.06 0.5 0.45 0.99 0.91 1.5 1.38 1.5 1.62 1.5 1.62 1.94 4.12 0.3 2.63 0.3 2.63 2.44 3.88 3.99 3.05 4.97 7.49 5.62 12.3 0.51 3.4 1.21 4.82 3.5 7.31l-1 2c0.91 0.06 1.81 0.12 2.75 0.19 4.06 1.01 4.73 2.58 7.25 5.81 1.99 0.69 3.99 1.36 6 2 2.25 1.51 4.02 3.12 6 5v2h2v2c0.9 0.4 0.9 0.4 1.81 0.81 2.19 1.19 3.6 2.29 5.19 4.19v2c1.08-0.22 1.08-0.22 2.19-0.44 2.81 0.44 2.81 0.44 4.26 1.93 3.55 4.9 3.55 4.9 3.55 7.51l1 3h6l1 6h3v2l4-1c1.49 3.96 1.49 3.96 3 8h1l2 6c2.21 0.11 2.21 0.11 5-1l1-2c4 5.5 4 5.5 4 10 1.96-0.11 1.96-0.11 4-1 1.21-2.28 1.21-2.28 2-5 0.67-1.67 1.33-3.33 2-5l2 1-1 2h2c0.15-0.96 0.15-0.96 0.31-1.94 0.23-0.68 0.46-1.36 0.69-2.06 0.99-0.33 1.98-0.66 3-1l-1-4h4c1.63 3.25 1.22 6.88 1.33 10.5 0.42 11.1 1.35 22.2 2.34 33.3 0.12 1.36 0.12 1.36 0.25 2.75 0.52 5.75 1.04 11.5 1.57 17.2 0.77 8.5 1.54 17 2.31 25.5 0.13 1.45 0.13 1.45 0.26 2.93 2.1 23.3 4.03 46.6 5.96 70 0.76 9.27 1.53 18.6 2.31 27.8 0.05 0.67 0.11 1.33 0.17 2.02 0.22 2.71 0.45 5.42 0.68 8.13l1.92 23c0.24 2.89 0.48 5.78 0.72 8.67 0.06 0.73 0.12 1.45 0.18 2.2 0.38 4.53 0.76 9.06 1.14 13.6 2.92 35.1 5.84 70.1 8.73 105 0.4 4.9 0.81 9.81 1.21 14.7 0.27 3.23 0.53 6.46 0.8 9.69 0.07 0.79 0.13 1.59 0.2 2.4 0.7 8.51 1.4 17 2.1 25.5 0.71 8.63 1.42 17.2 2.13 25.9 0.06 0.69 0.11 1.38 0.17 2.08 1.74 21.1 3.61 42.2 5.57 63.2 1.27 13.8 2.44 27.6 3.29 41.5 0.81 13.1 2.01 26.2 3.2 39.4 0.68 7.48 1.35 15 2.01 22.5 0.07 0.73 0.14 1.46 0.2 2.22 1.01 11.3 1.95 22.6 2.81 33.9 1.26 16.6 2.77 33.2 4.27 49.8 1.26 13.9 2.46 27.8 3.45 41.7 1.22 17.3 2.7 34.6 4.27 51.8 0.26 2.84 0.51 5.68 0.76 8.52 2.69 38.6 2.69 38.6 22.7 70.4 0.75 0.69 1.5 1.39 2.27 2.1 21.1 18.2 46.1 20.2 72.8 20.1h5.48c3.9-0.01 7.8-0.01 11.7-0.03 6.27-0.02 12.5-0.03 18.8-0.04 11.1-0.01 22.3-0.03 33.4-0.06 18.6-0.05 37.3-0.08 55.9-0.1 2.17-0.01 4.34-0.01 6.51-0.01 29.7-0.04 59.3 0.09 89 0.53 33.1 0.48 66.2 0.63 99.4 0.51 2.95-0.01 5.91-0.02 8.86-0.03 34-0.12 68-0.27 102-0.43 9.46-0.04 18.9-0.08 28.4-0.12 0.67-0.01 1.35-0.01 2.04-0.01 11.3-0.05 22.5-0.1 33.8-0.15 7.46-0.03 14.9-0.07 22.4-0.1l13.9-0.06c2.13-0.01 4.25-0.02 6.37-0.03 2.93-0.02 5.87-0.03 8.8-0.04 0.93-0.01 1.85-0.01 2.81-0.01 4.89-0.03 9.78-0.03 14.7-0.01h3.13c1.95 0.01 3.9 0.02 5.86 0.03 22.2 0.06 41.8-5.02 58.4-20.6 11.2-11.6 17.1-24.7 19.4-40.5 0.23-1.58 0.23-1.58 0.47-3.2 1.37-9.81 2.29-19.6 3.09-29.5 0.13-1.51 0.26-3.03 0.38-4.55 0.25-2.92 0.49-5.84 0.73-8.76 0.29-3.53 0.59-7.06 0.89-10.6 0.48-5.72 0.82-11.4 1.16-17.2 0.22-2.61 0.65-4.74 1.28-7.25 0.19-1.34 0.35-2.69 0.48-4.04 0.08-0.79 0.16-1.57 0.25-2.38 0.08-0.84 0.16-1.68 0.24-2.54 0.13-1.33 0.13-1.33 0.27-2.69 0.83-8.73 1.45-17.5 2.02-26.2 0.97-14.8 2.04-29.5 3.3-44.2 0.06-0.7 0.12-1.39 0.18-2.1 0.56-6.63 1.18-13.2 2-19.8 1.22-9.83 1.95-19.7 2.58-29.6 0.31-4.83 0.63-9.65 0.95-14.5 0.07-0.94 0.13-1.89 0.19-2.86 0.52-7.85 1.07-15.7 1.66-23.6 0.08-1.04 0.16-2.07 0.23-3.14 0.11-1.4 0.11-1.4 0.22-2.83 0.09-1.18 0.09-1.18 0.18-2.39 0.25-2.14 0.25-2.14 0.74-4 0.7-2.95 0.91-5.87 1.16-8.89 0.06-0.68 0.11-1.36 0.17-2.05 0.19-2.26 0.37-4.51 0.56-6.76 0.06-0.78 0.12-1.56 0.19-2.36 0.81-9.82 1.55-19.6 2.22-29.5 0.07-0.95 0.13-1.89 0.2-2.87 0.31-4.62 0.62-9.24 0.92-13.9 0.61-9.22 1.45-18.3 2.66-27.5 0.5-3.93 0.76-7.79 0.93-11.8 0.28-5.84 0.8-11.6 1.5-17.4 0.72-6.05 1.19-12 1.44-18.1 0.4-9.85 1.22-19.7 2.06-29.5 0.07-0.78 0.13-1.56 0.2-2.37 0.19-2.25 0.38-4.5 0.58-6.75 0.12-1.31 0.23-2.62 0.35-3.98 0.31-2.88 0.78-5.62 1.37-8.46 0.42-3.49 0.7-7 1-10.5 0.08-0.9 0.16-1.8 0.25-2.72 0.57-6.56 0.91-13.1 1.2-19.7 0.48-11 1.41-22 2.43-33 0.17-1.97 0.35-3.95 0.53-5.93 1.03-11.3 2.1-22.6 3.21-33.9 1.4-14.2 2.51-28.3 3.54-42.5 0.42-5.81 0.85-11.6 1.28-17.4 0.06-0.87 0.12-1.73 0.19-2.62 0.93-12.6 2.02-25.1 3.24-37.7 1.02-10.6 1.88-21.3 2.69-32 0.1-1.25 0.1-1.25 0.2-2.53 0.59-7.81 1.17-15.6 1.73-23.4 1.27-17.5 3.03-35 4.84-52.5 1.52-14.8 1.67-28.6 1.67-43.7-162-0.5-162-0.5-327-1v-3c-3.5-0.76-6.93-1.22-10.5-1.5-2.8-0.22-5.47-0.49-8.22-1.06-2.23-0.6-2.23-0.6-4.22 0.06-2.06 0.5-2.06 0.5-4.62 0.06-3.02-0.49-5.53-0.57-8.56-0.5-15.5 0.13-15.5 0.13-19.5-3.61-0.44-0.48-0.88-0.96-1.34-1.45 1.85 0.02 1.85 0.02 3.75 0.04 14.5 0.08 29.1-0.11 43.6-0.36 2.23-0.04 4.46-0.07 6.69-0.1 3.18-0.05 6.36-0.1 9.54-0.17 1.45-0.01 1.45-0.01 2.92-0.03 4.82-0.11 9.06-0.29 13.5-2.38l2-3c2.38-0.29 2.38-0.29 5.12-0.19 0.92 0.03 1.83 0.06 2.76 0.08 0.7 0.04 1.4 0.07 2.12 0.11l1-2c3.49-0.1 6.59 0.22 10 1l-4 5c8.4 1.27 16.7 2.19 25.2 2.19h2.14c2.92-0.03 5.66-0.19 8.53-0.76 2.14-0.43 2.14-0.43 4.14 0.57v-4c1.26-0.06 2.51-0.12 3.8-0.18 7.69-0.39 15.3-0.77 23-1.63 4.07-0.35 8.14-0.27 12.2-0.19l1 3h3v-3c0.77 0.02 1.53 0.03 2.32 0.05 3.52 0.06 7.04 0.1 10.6 0.14 1.2 0.02 2.4 0.05 3.64 0.07 6.54 0.06 12.1-0.31 18.3-2.54 3.97-1.31 8.02-1.52 12.2-1.72 1.01-0.05 2.01-0.11 3.05-0.16 6.15-0.18 10.5 0.2 16 3.16v2c8.16 1.26 16.2 2.26 24.4 2.75 2.55 0.25 2.55 0.25 4.55 1.25 1.57 0.21 3.14 0.37 4.72 0.5 0.93 0.08 1.86 0.16 2.82 0.25 0.98 0.08 1.95 0.16 2.96 0.25 1.93 0.16 3.85 0.33 5.78 0.5 0.86 0.07 1.71 0.14 2.6 0.22 2.12 0.28 2.12 0.28 4.12 1.28v-2h-7l1-2c4.62 0.24 9.25 0.49 13.9 0.74 1.56 0.09 3.13 0.17 4.7 0.25 22 1.14 22 1.14 27.4 3.01 1.82 2.07 1.82 2.07 3 4l-1 2c1.32 0.01 2.63 0.03 3.99 0.04 4.88 0.06 9.76 0.14 14.6 0.22 2.12 0.04 4.23 0.06 6.34 0.09 3.04 0.03 6.08 0.08 9.11 0.14 0.95 0 1.9 0.01 2.87 0.02 1.32 0.03 1.32 0.03 2.67 0.06 0.78 0.01 1.55 0.02 2.35 0.03 2.51 0.49 3.42 1.46 5.03 3.4h-2l1 10h2l1-5c0.45 0.66 0.91 1.32 1.38 2 0.53 0.66 1.07 1.32 1.62 2h2l2-3 2 1v2h2v2h3l1-3c2.91-1.42 5.85-2.3 9-3v-2c1.18-0.31 1.18-0.31 2.38-0.62 2.93-1.16 2.93-1.16 3.62-4.38 1-3 1-3 3.62-4.38 1.18-0.3 1.18-0.3 2.38-0.62 0.12-1.11 0.25-2.23 0.38-3.38 0.62-3.62 0.62-3.62 2.62-5.62 1.95-0.27 1.95-0.27 4.25-0.38 5.5-0.48 8.87-2.74 12.8-6.62 2.17-0.78 2.17-0.78 4.75-1.5 2.79-0.79 5.52-1.59 8.25-2.56 2.71-0.85 5.28-1.38 8.06-1.88 4.65-0.89 8.04-2.16 11.4-5.56 1.5-1.5 1.5-1.5 3.88-2.81 2.35-1.52 3.53-2.63 5.24-4.75 2.38-2.94 2.38-2.94 5.38-4.94 1.19-2.05 1.19-2.05 2-4h3c0.21-0.74 0.41-1.49 0.62-2.25 1.82-3.62 3.86-4.82 7.38-6.75 2.88-0.75 2.88-0.75 5-1v-5c1.66-0.38 3.32-0.71 5-1l1 1 2-2c-1.33 15.3-10.6 28.3-21 39-1.24 1.33-1.24 1.33-2.5 2.69-15.5 14.3-33.4 19.9-54.1 22.1-0.93 0.11-1.86 0.22-2.82 0.34-0.84 0.09-1.68 0.18-2.55 0.27-2.45 0.43-2.45 0.43-4.07 3.57-0.46 2.98-0.46 2.98-0.63 6.39-0.13 1.9-0.13 1.9-0.26 3.84-0.08 1.34-0.16 2.68-0.23 4.02-0.09 1.31-0.18 2.62-0.27 3.97-0.46 7.15-0.46 7.15-0.58 14.3-0.03 3.36-0.38 6.46-0.89 9.78-1.46 10.2-2.2 20.5-3.03 30.8-0.48 5.94-0.97 11.9-1.45 17.8l-0.54 6.48c-1.38 16.9-2.83 33.8-4.27 50.6-0.38 4.34-0.75 8.69-1.12 13-1.21 14.2-2.43 28.4-3.65 42.6-3.11 36.3-6.21 72.6-9.17 109-1.73 21.3-3.51 42.6-5.29 63.9-1.77 21.2-3.54 42.4-5.27 63.6-0.14 1.67-0.28 3.34-0.41 5.02-0.11 1.24-0.11 1.24-0.21 2.52-3.2 39-6.48 78.1-9.79 117-3.85 45.2-3.85 45.2-7.61 90.5-0.27 3.39-0.55 6.77-0.83 10.2-1.34 16.3-2.66 32.6-3.95 48.8-0.86 10.9-1.74 21.8-2.62 32.6-0.55 6.79-1.09 13.6-1.62 20.4-3.92 49.9-3.92 49.9-6.81 67.6-0.26 1.65-0.26 1.65-0.53 3.34-1.92 10.5-5.8 20.6-11.2 29.9-0.57 1-0.57 1-1.15 2.02-16.8 28.7-44.6 47.2-76.2 56.2-9.01 1.89-18.2 1.92-27.3 2.04-1.41 0.02-2.82 0.04-4.22 0.06-3.91 0.06-7.81 0.11-11.7 0.15-2.55 0.03-5.1 0.06-7.64 0.1-51.3 0.62-103 0.54-154 0.55h-30.9c-3 0-6.01 0-9.02 0.01h-2.26c-20.9 0-41.8 0.01-62.6 0.01h-2.35-11.8-2.37-4.75c-24.8-0.01-49.5 0-74.3 0.02-28 0.01-56.1 0.02-84.1 0.02h-8.97-2.23c-11.8 0-23.5 0-35.3 0.01-11.8 0.01-23.6 0.01-35.4 0.01-6.38-0.01-12.8-0.01-19.1 0-5.84 0.01-11.7 0.01-17.5 0-2.1 0-4.2 0-6.3 0.01-27.3 0.06-50.6-3-75.2-15.8-0.71-0.37-1.42-0.74-2.16-1.11-4.49-2.39-8.11-5.08-12-8.39-0.82-0.49-1.65-0.98-2.5-1.49-22.7-13.7-36.3-42.6-42.5-67.4-3.32-15.8-4.55-31.8-5.6-47.9-0.19-2.86-0.38-5.73-0.57-8.59-0.12-1.77-0.24-3.53-0.35-5.3-0.22-3.3-0.47-6.21-1.52-9.36-0.13-1.37-0.22-2.75-0.28-4.12-0.04-0.79-0.08-1.58-0.11-2.4-0.07-1.65-0.15-3.31-0.22-4.96-0.03-0.79-0.07-1.58-0.11-2.4-0.03-0.71-0.06-1.43-0.09-2.17-0.14-2.17-0.14-2.17-1.19-4.95-0.13-1.4-0.22-2.8-0.28-4.2-0.04-0.82-0.08-1.64-0.11-2.48-0.04-0.85-0.07-1.69-0.11-2.57-0.07-1.67-0.14-3.34-0.22-5.02-0.03-0.74-0.06-1.48-0.09-2.24-0.14-1.88-0.38-3.76-0.66-5.62-0.66-4.82-0.96-9.62-1.25-14.5-0.13-2.05-0.26-4.11-0.39-6.16-0.19-3.22-0.39-6.44-0.59-9.66-0.19-3.12-0.38-6.24-0.58-9.36-0.06-0.97-0.12-1.93-0.17-2.92-0.09-1.35-0.09-1.35-0.18-2.72-0.07-1.19-0.07-1.19-0.14-2.39-0.23-2.14-0.7-4.09-1.23-6.18-0.2-2.82-0.37-5.62-0.5-8.44-0.21-5.52-0.21-5.52-1-11-0.8-4.11-0.83-8.27-1-12.5-0.23-5.78-0.66-11.4-1.5-17.1-0.28-3.59-0.43-7.18-0.61-10.8-0.16-3.12-0.37-6.11-0.89-9.19-0.66-4.01-0.78-7.99-0.94-12-0.32-7.12-1.04-14-2.15-21-0.51-3.7-0.48-7.23-0.41-11-0.24-0.95-0.24-0.95-0.48-1.91-0.58-2.33-0.71-4.47-0.8-6.86-0.06-1.36-0.06-1.36-0.11-2.75-0.04-0.94-0.07-1.89-0.11-2.86-0.21-5.63-0.52-11.1-1.5-16.6-0.2-2.75-0.36-5.5-0.5-8.25-0.29-5.39-0.66-10.7-1.25-16.1-0.46-4.83-0.7-9.68-0.97-14.5-0.44-6.99-1.26-13.9-2.03-20.9-0.14-1.19-0.27-2.38-0.4-3.6-0.28-2.45-0.55-4.9-0.83-7.35-0.64-5.83-1.12-11.5-1.01-17.4-0.02-2.69-0.54-5.24-1.01-7.88-0.29-3.57-0.44-7.15-0.61-10.7-0.16-3.11-0.36-6.1-0.89-9.17-0.85-5.31-0.9-10.7-1.11-16-0.05-1.3-0.05-1.3-0.11-2.62-0.03-0.79-0.06-1.57-0.09-2.38-0.13-2.27-0.13-2.27-1.19-5.08-0.13-1.43-0.22-2.87-0.28-4.31-0.04-0.83-0.08-1.66-0.11-2.51-0.04-0.87-0.07-1.73-0.11-2.62-0.07-1.7-0.14-3.41-0.22-5.12-0.03-0.75-0.06-1.51-0.09-2.29-0.13-2.14-0.13-2.14-0.69-4.14-0.56-2.24-0.69-4.3-0.78-6.6-0.04-0.87-0.08-1.73-0.11-2.63-0.06-1.34-0.06-1.34-0.11-2.72-0.2-5.14-0.46-10-1.5-15.1-0.24-2.95-0.37-5.91-0.5-8.88-0.19-4.24-0.4-8.42-1-12.6-0.6-4.17-0.77-8.29-0.94-12.5-0.33-7.32-1.03-14.4-2.16-21.7-0.4-3.3-0.4-3.3-0.4-6.97 0.13-3.12 0.13-3.12-0.48-5.26-0.56-2.24-0.71-4.28-0.8-6.59-0.04-0.86-0.08-1.72-0.11-2.6-0.06-1.33-0.06-1.33-0.11-2.69-0.07-1.76-0.14-3.52-0.22-5.27-0.03-0.78-0.06-1.55-0.09-2.35-0.14-1.93-0.38-3.85-0.66-5.76-0.63-4.54-0.93-9.06-1.21-13.6-0.13-1.92-0.25-3.83-0.38-5.75-0.19-2.99-0.38-5.97-0.56-8.96-0.64-10.2-1.29-20.4-3-30.5-0.38-2.96-0.38-2.96-0.37-6.59-0.01-2.8-0.26-4.73-1.01-7.37-0.13-1.44-0.22-2.89-0.28-4.34-0.06-1.22-0.06-1.22-0.11-2.47-0.04-0.85-0.07-1.69-0.11-2.57-0.07-1.67-0.14-3.34-0.22-5.02-0.03-0.74-0.06-1.48-0.09-2.24-0.16-2.43-0.16-2.43-0.66-5.07-0.67-4.16-0.94-8.3-1.21-12.5-0.13-1.82-0.25-3.64-0.38-5.47-0.19-2.83-0.38-5.66-0.56-8.5-0.7-10.5-1.52-21-3-31.4-0.38-3.42-0.38-3.42-0.37-7.11-0.01-2.77-0.27-4.7-1.01-7.31-0.12-1.34-0.2-2.68-0.25-4.03-0.03-0.78-0.06-1.56-0.09-2.36-0.03-0.84-0.06-1.68-0.1-2.55-0.34-7.78-0.89-15.5-1.69-23.2-0.52-5.03-0.98-10.1-1.36-15.1-0.22-3.02-0.47-6.04-0.71-9.06-0.12-1.5-0.23-3.01-0.33-4.51-0.15-2.12-0.32-4.24-0.49-6.36-0.14-1.85-0.14-1.85-0.28-3.73-0.44-3.08-0.44-3.08-2.47-4.92-2.42-1.21-4.18-1.62-6.87-1.86-0.9-0.09-1.8-0.19-2.72-0.28-0.96-0.1-1.91-0.19-2.89-0.29-18.7-2.21-40.3-9.99-52.7-24.9-0.68-0.91-1.36-1.81-2.06-2.75-0.64-0.63-1.28-1.25-1.95-1.89-14.4-14.7-18.2-40.2-18.2-60-0.01-0.91-0.01-1.83-0.02-2.78-0.01-1.94-0.02-3.88-0.02-5.81-0.01-2.9-0.04-5.8-0.07-8.7-0.16-28.2 4.97-53.9 25.2-74.8 8.57-7.98 18.7-13.1 29.5-17.5 0.84-0.34 1.68-0.68 2.55-1.03 11.9-4.62 11.9-4.62 16.1-2.53z" fill="#F86218"/>
<path transform="translate(660 672)" d="m0 0c0.81-0 1.62-0.01 2.46-0.01 15.9-0.04 31.4 1.88 46.7 6.2 1.36 0.38 1.36 0.38 2.75 0.77 17.4 5.07 34.4 12.3 47.2 25.5 1.17 1.06 1.17 1.06 2.36 2.15 7.24 6.74 12 14.2 16.6 22.8 0.41 0.75 0.82 1.51 1.24 2.28 3.29 6.28 5.52 12.6 7.45 19.4 0.3 1.04 0.6 2.08 0.91 3.16 2.25 8.04 3.65 15.8 4.4 24.2-15.4 0.12-30.8 0.05-46.3-0.32-1.62-0.04-3.24-0.07-4.86-0.1-2.28-0.05-4.55-0.1-6.83-0.17-1.31-0.03-2.63-0.06-3.98-0.09-3.07-0.32-3.07-0.32-5.07-2.32-0.81-2.49-1.54-4.98-2.25-7.5-2.03-6.85-4.62-12.6-8.75-18.5-0.58-0.91-1.16-1.82-1.75-2.75-13.6-13.6-35.7-17.2-54.1-17.4-17 0.05-32.7 4.36-45.9 15.5-7.05 8.42-12 16.5-11.7 27.7 1.08 7.63 4.22 15.2 10.4 20 0.48 0.4 0.96 0.81 1.46 1.22 4.48 3.32 9.42 4.74 14.7 6.17 0.79 0.21 1.59 0.43 2.4 0.65 7.53 2.03 15.1 3.91 22.7 5.73 2.37 0.56 4.74 1.14 7.11 1.71 7.06 1.71 14.1 3.41 21.2 5.09 90.9 21.7 90.9 21.7 107 47.4 1.41 2.33 2.74 4.68 4.07 7.06 0.57 0.98 1.15 1.95 1.74 2.96 5.76 10.5 8.75 23.1 9.26 35 0.05 0.91 0.1 1.82 0.15 2.76 0.78 25.9-7.7 50.3-24.2 70.2-0.52 0.74-1.04 1.48-1.58 2.24-0.47 0.58-0.94 1.16-1.42 1.76h-2l-1 3c-23.2 21.6-59.1 31.2-90 32-0.68 0.02-1.35 0.04-2.05 0.06-39.2 1.06-85.9-4.7-116-32.8-1.46-1.41-2.91-2.83-4.36-4.26-0.79-0.74-1.57-1.48-2.38-2.24-1.62-1.76-1.62-1.76-1.62-3.76-0.58-0.21-1.17-0.43-1.76-0.65-10.5-6.33-16.5-26.9-19.6-38.2-2.23-9.07-4.29-17.8-3.69-27.2 2.66-2.67 3.96-2.26 7.68-2.27 1.2-0.01 2.39-0.02 3.62-0.03h3.91c1.34 0 2.67-0.01 4.01-0.01 2.8-0.01 5.6-0.01 8.4-0.01 3.59 0.01 7.18-0.01 10.8-0.03 2.75-0.01 5.51-0.02 8.27-0.01 1.97 0 3.93-0.02 5.9-0.03 1.2 0.01 2.39 0.01 3.62 0.02h3.19c2.63 0.37 2.63 0.37 4.43 1.65 2.1 3.01 2.37 6.67 3.01 10.2 2.41 12 7.17 22.5 17.6 29.5 23 14.8 53.8 15.9 79.9 10.5 8.75-2.07 16.6-4.74 23.6-10.5 1.05-0.76 2.1-1.53 3.19-2.31 7.31-6.99 11-14.8 11.8-24.8 0.1-7.1-1.82-12.2-5.81-18-1.15-1.79-1.15-1.79-2.15-4.67-1.39-2.94-3.01-3-6-4.12-1.4-0.74-2.8-1.49-4.19-2.25-12.6-6.32-26.5-9.64-40.2-12.6-4.25-0.93-8.5-1.9-12.8-2.87-0.84-0.19-1.68-0.38-2.55-0.57-10.8-2.44-21.5-5.11-32.2-7.87-2.02-0.52-4.03-1.03-6.05-1.54-23.6-5.99-47.5-13.3-65-31.2-0.79-0.7-1.57-1.4-2.38-2.12-16.7-18.3-19.7-43.4-18.8-67.1 1.1-18.6 8.5-41.5 21.9-55 1.07-0.95 2.15-1.89 3.25-2.81 0.76-0.8 1.52-1.61 2.31-2.44 25.5-24.3 61.2-33 95.5-33.1z" fill="#FB630A"/>
<path transform="translate(994,677)" d="m0 0c0.71 0.26 1.42 0.53 2.16 0.8 12.2 4.58 23.3 10.1 32.8 19.2v2c0.58 0.23 1.17 0.47 1.77 0.71 10.8 6.22 18 25.9 21.5 37.3 5.24 21.3 5.31 45.1-5.88 64.4-6.39 10.3-15.7 19.1-26.4 24.7h-2c0.99 3.3 2.61 4.55 5.48 6.18 1.42 0.77 2.84 1.52 4.27 2.26 5.25 2.75 9.91 5.48 14.2 9.56v2c0.99 0.33 1.98 0.66 3 1v3c0.57 0.18 1.13 0.35 1.72 0.53 3.46 2.23 4.86 5.4 6.78 8.97 0.4 0.72 0.79 1.45 1.2 2.2 13 24 15.3 52.7 7.98 79-8.11 26.7-26 50.1-50.7 63.4-18.8 9.73-37.4 14.3-58.6 14.2-2.19-0.01-4.37 0-6.55 0.01-12.5 0.02-24.8-0.98-36.8-4.52-1.13-0.33-1.13-0.33-2.28-0.66-16.9-5.05-36-12.3-46.7-27.1-0.83-0.8-1.65-1.61-2.5-2.44-18.1-18.5-26.6-49.2-26.8-74.7 0.27-1.89 0.27-1.89 2.27-3.89 2.35-0.32 2.35-0.32 5.34-0.41 1.7-0.06 1.7-0.06 3.42-0.12 1.24-0.03 2.47-0.06 3.74-0.09 1.27-0.04 2.53-0.08 3.83-0.12 15.6-0.44 31.1-0.35 46.7-0.26 1.17 2.35 1.3 4.47 1.54 7.05 1.72 17.2 6.54 31.8 20.2 43.3 3.27 2.44 6.44 4.23 10.2 5.68 0.75 0.3 1.5 0.6 2.28 0.9 12.1 4.05 26.3 3.84 37.9-1.42 7.24-3.83 13-7.81 17.8-14.5 0.44-0.61 0.88-1.21 1.34-1.84 8.85-13.2 10.3-29.1 8.2-44.6-2.1-9.45-6.19-18.2-13.5-24.6-2.48-1.56-5.05-2.86-7.69-4.12-0.71-0.35-1.42-0.7-2.15-1.06-13-6.17-26.2-7.91-40.4-8.48-9.26-0.84-9.26-0.84-11.8-3.34-0.1-1.34-0.14-2.69-0.15-4.03 0-0.85-0.01-1.71-0.01-2.59-0.01-0.93-0.01-1.86-0.01-2.81 0-1.43 0-1.43-0.01-2.88 0-2.01-0.01-4.02-0.01-6.03 0-3.08-0.02-6.16-0.03-9.25-0.01-1.95-0.01-3.9-0.01-5.84-0.01-0.93-0.01-1.86-0.02-2.81 0-0.86 0-1.72 0.01-2.6 0-0.76-0.01-1.51-0.01-2.29 0.25-1.87 0.25-1.87 2.25-3.87 2.25-0.26 2.25-0.26 5.07-0.27 1.03-0.02 2.07-0.04 3.13-0.06 1.11-0.01 2.22-0.03 3.36-0.05 16.3-0.47 31.1-1.95 43.5-13.6 9.41-10.1 11.6-21.5 11.2-35-0.4-7.22-2.72-13.9-5.96-20.3-1.36-2.76-1.36-2.76-1.36-4.76h-2c-1.51-1.46-1.51-1.46-3.12-3.38-0.54-0.62-1.08-1.25-1.64-1.89-1.24-1.73-1.24-1.73-1.24-3.73-17.7-6.19-33.2-9.01-50.8-0.68-10 5.56-15.2 13.1-19.2 23.7-0.46 1.17-0.46 1.17-0.94 2.36-1.85 5.31-2.35 10.4-2.64 16-0.06 1.11-0.06 1.11-0.13 2.24-0.1 1.81-0.19 3.62-0.29 5.43-6.76 0.03-13.5 0.04-20.3 0.05-2.29 0.01-4.59 0.02-6.88 0.03-3.32 0.01-6.63 0.01-9.95 0.02-1.51 0.01-1.51 0.01-3.06 0.01-18.6 0-18.6 0-22.8-2.11-0.62-26.2 9.5-55.6 26.5-75.5 32.7-33.5 88.1-39.3 130-23.5z" fill="#FB630A"/>
<path transform="translate(524 432)" d="m0 0c6.54 0.7 13 0.61 19.6 0.55l6-0.03c4.9-0.02 9.8-0.05 14.7-0.09 2.77-0.02 5.53-0.04 8.3-0.05 2.59-0.01 5.19-0.03 7.78-0.06 1.17 0 2.34 0 3.54-0.01 1.03 0 2.06-0.01 3.12-0.02 2.57 0.24 2.57 0.24 5.57 2.24v1c0.84 0.06 1.67 0.12 2.53 0.18 6.51 0.48 13 1.05 19.5 1.82v-2c-1.17-0.19-1.17-0.19-2.37-0.38-2.63-0.62-2.63-0.62-4.63-2.62 5.36-0.03 10.7-0.05 16.1-0.06 1.83 0 3.65-0.01 5.47-0.02 2.62-0.01 5.24-0.02 7.86-0.02 1.22-0.01 1.22-0.01 2.47-0.02 3.3 0 5.98 0.06 9.13 1.12l1 3c1.99-0.07 3.97-0.14 5.96-0.2 2.04 0.2 2.04 0.2 5.04 2.2 2.05 0.16 2.05 0.16 4.32 0 6.67-0.16 13.1 0.94 19.7 2l-1 2c-2.32 0.4-4.65 0.74-7 1v3c8.96 0.04 17.9 0.08 26.9 0.1 4.15 0.01 8.31 0.02 12.5 0.05 4.02 0.02 8.04 0.03 12.1 0.03 1.53 0.01 3.06 0.02 4.58 0.03 8.2 0.05 16-0.09 24-2.21v-1h15l-1-3c4.97-0.92 9.03-0.92 14 0v1h-7v2h13c-4 2-4 2-20 3l133 1v1c-10.5 1.32-20.9 1.14-31.5 1.13-2.09 0-4.18 0-6.27 0.01h-17.2c-6.18 0-12.4 0.01-18.5 0.01-12.1 0.01-24.2 0.01-36.3 0.01-9.83 0-19.7 0-29.5 0.01h-8.49-2.13c-19.8 0.01-39.6 0.01-59.4 0.01h-2.26-11.3-2.27-4.55c-23.6 0-47.3 0.01-70.9 0.02-26.6 0.02-53.1 0.02-79.7 0.02h-8.48-2.11c-11.2 0-22.4 0.01-33.7 0.02-11.3 0.01-22.5 0.01-33.8 0-6.11 0-12.2 0-18.3 0.01-5.59 0-11.2 0-16.8-0.01-2.03 0-4.06 0.01-6.08 0.01-2.74 0.01-5.49 0-8.23-0.01-0.8 0.01-1.59 0.01-2.41 0.02-4.12-0.03-6.15-0.37-9.94-2.26l26-1v-2h-3v-2c-0.99-0.33-1.98-0.66-3-1v-2c4.82-0.29 9.63-0.58 14.4-0.85 2.62-0.16 5.24-0.32 7.85-0.48 1.72-0.1 3.43-0.2 5.15-0.3 0.82-0.05 1.64-0.1 2.49-0.16 5.85-0.33 5.85-0.33 8.07 0.79 2.99-0.1 5.96-0.25 8.94-0.44 10-0.59 20-0.67 30.1-0.56l1-4 5 2 1-3c2.97 1.12 5.34 2.22 8 4l1-2h4c0.5 0.99 0.5 0.99 1 2 0.99-0.33 1.98-0.66 3-1v-2c1.65-0.25 3.3-0.48 4.95-0.71 1.96-0.28 3.91-0.6 5.87-0.92 2.98-0.37 5.59-0.28 8.57 0.1z" fill="#F86218"/>
<path transform="translate(1306,247)" d="m0 0c2.33 0.38 4.66 0.72 7 1l1-2 2 1v-2c11.8-0.71 22.2 7.07 31 14l3 2v2c0.84 0.31 0.84 0.31 1.7 0.63 3.12 1.86 4.99 4.43 7.11 7.31 0.42 0.54 0.84 1.07 1.27 1.63 1.19 1.58 1.19 1.58 2.92 4.43l-1 3c-1.48-0.5-1.48-0.5-3-1 0.27 0.5 0.53 0.99 0.8 1.5 2.32 4.45 3.98 8.64 5.2 13.5-4.75 1-4.75 1-7 1-0.43-0.93-0.87-1.86-1.31-2.81-1.43-2.71-2.54-4.14-4.69-6.19v-2h-2l-2-3-2 2c-3-3.75-3-3.75-3-6-0.6-0.27-1.2-0.54-1.81-0.81-2.19-1.19-2.19-1.19-3.63-2.81-1.55-1.65-1.55-1.65-4.25-1.57-0.76 0.06-1.52 0.13-2.31 0.19v-3h-2v-2c-0.62-0.25-1.24-0.5-1.88-0.75-2.47-1.46-3.07-2.63-4.12-5.25h-2v-2c-1.15 0.17-2.31 0.33-3.5 0.5-2.94 0.38-5.78 0.54-8.75 0.5-2.92 0-5.03 0.09-7.75 1-3-4.75-3-4.75-3-7h-2v-2h-2v-3c-1.3-0.12-2.6-0.25-3.94-0.38-2.21-0.21-2.21-0.21-4.06-0.62l-1-2c2.56-0.22 5.12-0.43 7.69-0.62 0.72-0.07 1.44-0.13 2.18-0.2 4.31-0.32 7.24-0.04 11.1 1.82z" fill="#F86218"/>
<path transform="translate(539,760)" d="m0 0h1c-0.02 0.78-0.03 1.55-0.05 2.35-0.06 3.51-0.1 7.02-0.14 10.5-0.02 1.22-0.05 2.44-0.07 3.7-0.01 1.17-0.02 2.34-0.03 3.54-0.02 1.08-0.03 2.15-0.05 3.27 0.11 0.86 0.22 1.72 0.34 2.61l3 2c0 1.99-0.01 3.98-0.09 5.97 0.13 2.95 1.36 4.7 3.09 7.03 2 3 2 3 2 7h-3v2h2l1 6 4 1c-0.02 0.78-0.04 1.57-0.06 2.38-0.13 2.6-0.13 2.6 1.06 4.62l-2 2c-13.5-19.1-14.6-41.5-14-64h2v-2z" fill="#F96217"/>
<path transform="translate(650 672)" d="m0 0h2.12c3.6 0.07 6.32 0.42 9.38 2.38v1c-4.46 0.49-4.46 0.49-9 1v1c-1.58 0.02-3.17 0.04-4.75 0.06-1.32 0.01-1.32 0.01-2.67 0.03-2.36-0.09-4.32-0.43-6.58-1.09-0.33 0.65-0.66 1.32-1 2v-2c-1.42 0.52-1.42 0.52-2.88 1.06-3.12 0.94-3.12 0.94-5.12-0.06v2c-1.15 0.12-2.31 0.24-3.5 0.37-4.28 0.53-8.33 1.51-12.5 2.63 0.33-1 0.66-1.99 1-3 3.06-1.19 3.06-1.19 6-2v-1c9.8-2.27 19.4-4.4 29.5-4.38z" fill="#F96215"/>
<path transform="translate(734,440)" d="m0 0v3c-14.3 1.08-28.7 1.82-43 0v-2c14.5-2.47 28.4-2.15 43-1z" fill="#F86218"/>
<path transform="translate(661,1332)" d="m0 0h38c0.5 1.48 0.5 1.48 1 3h-40l1-3z" fill="#F46622"/>
<path transform="translate(1306 242)" d="m0 0c1.09 0.14 1.09 0.14 2.21 0.28 5.38 0.7 5.38 0.7 7.67 1.84v3c-4.19 1.4-8.16 1.75-12.3 0.07-4.09-1.62-8.32-1.74-12.7-2.07 4.4-5.06 8.91-3.97 15.1-3.12z" fill="#F5651F"/>
<path transform="translate(515,447)" d="m0 0c-0.99 1.49-0.99 1.49-2 3-2.58 0.39-2.58 0.39-5.81 0.4-1.74 0-1.74 0-3.51 0.01-1.82-0.02-1.82-0.02-3.68-0.03-1.21 0.01-2.43 0.02-3.68 0.03-1.16 0-2.31-0.01-3.51-0.01-1.06 0-2.13-0.01-3.23-0.01-0.85-0.13-1.7-0.26-2.58-0.39l-2-3c10.2-0.79 19.8-1.15 30 0z" fill="#F6641E"/>
<path transform="translate(1142 446)" d="m0 0c3.01 0.68 5.93 0.42 9 0.29 2.02 0.16 2.02 0.16 4.02 2.16h-41v-1c0.64-0.05 1.28-0.09 1.94-0.15 4.07-0.35 7.71-0.74 11.6-1.97 4.94-1.26 9.53-0.68 14.4 0.67z" fill="#F46723"/>
<path transform="translate(336,242)" d="m0 0v1c-9.26 1.41-17.7 2.28-27 1-2.06-0.2-4.12-0.38-6.19-0.56-1.6-0.15-3.21-0.29-4.81-0.44v-1c12.6-1.83 25.4-1.36 38 0z" fill="#F96217"/>
<path transform="translate(863,904)" d="m0 0h23l1 3h-25l1-3z" fill="#F46723"/>
<path transform="translate(537,938)" d="m0 0c0.99 0.33 1.98 0.66 3 1 0.66 1.98 1.31 3.97 1.91 5.97 2.38 6.61 5.87 12.8 9.09 19-1.85-0.23-1.85-0.23-4-1-1.26-1.87-1.26-1.87-2.32-4.3-0.39-0.87-0.78-1.75-1.18-2.65-0.39-0.93-0.78-1.85-1.19-2.8-0.6-1.36-0.6-1.36-1.22-2.75-1.82-4.17-3.31-8-4.09-12.5z" fill="#F96217"/>
<path transform="translate(636,1332)" d="m0 0h20l1 3h-22l1-3z" fill="#F46622"/>
<path transform="translate(505,1332)" d="m0 0h20l1 3h-22l1-3z" fill="#F46622"/>
<path transform="translate(722,762)" d="m0 0c0.99 0.33 1.98 0.66 3 1v4c0.99-0.33 1.98-0.66 3-1 0.99 2.31 1.98 4.62 3 7h-2l1 4c-1.89-0.27-1.89-0.27-4-1-1.01-1.64-1.01-1.64-1.69-3.69-0.23-0.71-0.47-1.43-0.72-2.17-0.74-2.69-1.24-5.37-1.59-8.14z" fill="#F96217"/>
<path transform="translate(311,446)" d="m0 0 3 2c-0.29 2.05-0.59 4.1-0.88 6.15-0.04 0.61-0.08 1.22-0.12 1.85l1 1c0.04 2 0.04 4 0 6-2.48-0.99-2.48-0.99-5-2-0.05-1.75-0.09-3.5-0.12-5.25-0.04-1.46-0.04-1.46-0.08-2.95 0.2-2.82 0.75-4.41 2.2-6.8z" fill="#F46622"/>
<path transform="translate(926 812)" d="m0 0c3.22 0.19 5.36 0.83 8.25 2.19-3 2-3 2-6 3l-2-1v2h-2v7h-1v-7h-2c1.07-5.94 1.07-5.94 4.75-6.19z" fill="#F96217"/>
<path transform="translate(921,842)" d="m0 0h2c0.87 2.99 1.11 5.64 1.06 8.75-0.01 0.8-0.02 1.6-0.02 2.42-0.02 0.91-0.02 0.91-0.04 1.83 0.99 0.33 1.98 0.66 3 1l-1 3c-3.88-0.88-3.88-0.88-5-2-0.07-2.53-0.09-5.03-0.06-7.56 0-0.71 0.01-1.42 0.01-2.16 0.01-1.76 0.03-3.52 0.05-5.28z" fill="#F96217"/>
<path transform="translate(533,907)" d="m0 0c1.68 0.29 3.34 0.62 5 1l-1 6h-2v8h-2c-1.19-4.61-1.33-9.27-1-14l1-1z" fill="#F96216"/>
<path transform="translate(354,457)" d="m0 0c0.99 0.33 1.98 0.66 3 1l1 14c-0.99 0.33-1.98 0.66-3 1-0.68-5.37-1.12-10.6-1-16z" fill="#F56520"/>
<path transform="translate(629,676)" d="m0 0v3c-1.15 0.12-2.31 0.25-3.5 0.38-4.28 0.52-8.33 1.5-12.5 2.62l1-3c3.06-1.19 3.06-1.19 6-2v-1c3.38-0.84 5.67-1.11 9 0z" fill="#F96217"/>
<path transform="translate(222,321)" d="m0 0v17c-3.24-4.32-3.35-5.15-3.19-10.2 0.04-1.62 0.04-1.62 0.08-3.27 0.04-0.82 0.07-1.64 0.11-2.48 2-1 2-1 3-1z" fill="#F46723"/>
<path transform="translate(639,803)" d="m0 0c1.77 0.23 3.54 0.48 5.31 0.75 0.99 0.14 1.97 0.28 2.99 0.42 3.17 0.97 4.03 2.03 5.7 4.83-5.57-0.48-10.7-1.3-16-3l2-1v-2z" fill="#F96216"/>
<path transform="translate(588,691)" d="m0 0-1 3c-0.99 0.33-1.98 0.66-3 1l-2-1v2h-3v2h-3v2h-2l1-3h3c0.25-0.78 0.5-1.57 0.75-2.38 1.25-2.62 1.25-2.62 3.13-4 2.45-0.72 3.73-0.47 6.12 0.38z" fill="#F96216"/>
<path transform="translate(664,809)" d="m0 0c1.63 0.28 3.25 0.58 4.88 0.88 0.9 0.16 1.8 0.32 2.74 0.49 2.38 0.63 2.38 0.63 4.38 2.63 0.99 0.33 1.98 0.66 3 1l-1 2-14-4v-3z" fill="#F96215"/>
<path transform="translate(1088,1332)" d="m0 0h11l1 3h-13l1-3z" fill="#F46622"/>
<path transform="translate(1203,436)" d="m0 0c1.75-0.03 3.5-0.05 5.25-0.06 1.46-0.02 1.46-0.02 2.95-0.04 2.46 0.09 4.46 0.39 6.8 1.1v2l2 1c-1.9-0.14-3.79-0.29-5.69-0.44-1.05-0.08-2.11-0.16-3.2-0.24-2.76-0.28-5.4-0.72-8.11-1.32v-2z" fill="#F96218"/>
<path transform="translate(839,765)" d="m0 0h1l1 12-4-1v-9h2v-2z" fill="#F96218"/>
<path transform="translate(607,682)" d="m0 0v3c-3 2-3 2-5.69 1.62-0.76-0.2-1.52-0.41-2.31-0.62v-3c2.93-0.98 4.96-1.08 8-1z" fill="#F96216"/>
<path transform="translate(1167 446)" d="m0 0c0.75 0.1 1.49 0.21 2.26 0.32 1.83 0.25 3.66 0.53 5.49 0.8v1c-2.4 0.03-4.79 0.05-7.19 0.07-0.67 0.01-1.34 0.01-2.04 0.02-3.72 0.02-7.15-0.19-10.8-1.09 3.92-2.78 7.79-1.81 12.2-1.12z" fill="#F46723"/>
<path transform="translate(222,355)" d="m0 0v12c-0.99-0.33-1.98-0.66-3-1v-10c2-1 2-1 3-1z" fill="#F46622"/>
<path transform="translate(1347,283)" d="m0 0h2c1.38 2.06 1.38 2.06 3 5l2.19 3.81c0.89 1.58 0.89 1.58 1.81 3.19h-3c-3.69-3.69-4.84-7.06-6-12z" fill="#F96218"/>
<path transform="translate(581,907)" d="m0 0v2c-4.05 0.98-7.84 1.08-12 1l1-3c4.05-1.35 6.79-0.62 11 0z" fill="#F96215"/>
<path transform="translate(622 1e3)" d="m0 0c2 2 2 2 2 3 0.99 0.33 1.98 0.66 3 1l-1 3-8-2 1-4c0.99-0.33 1.98-0.66 3-1z" fill="#F96218"/>
<path transform="translate(639,674)" d="m0 0c-2.55 2.1-4.63 3.78-8 4-1.75-1.44-1.75-1.44-3-3 4.12-1.63 6.71-2.26 11-1z" fill="#FA6212"/>
<path transform="translate(553,825)" d="m0 0c3.88 1.75 3.88 1.75 5 4l-1 2h2l-1 3c-4.88-4.75-4.88-4.75-6-7l1-2z" fill="#F96215"/>
<path transform="translate(1065,1332)" d="m0 0h8l1 3h-10l1-3z" fill="#F46622"/>
<path transform="translate(577,694)" d="m0 0 2 1-1 2c-2.56 0.62-2.56 0.62-5 1l4-4zm-5 4 1 4c-2.48 1.49-2.48 1.49-5 3v-2h2l-1-3 3-2z" fill="#FA6310"/>
</svg>
